# xmcd
#
# Track frame offsets:
#	150
#	17864
#	39349
#	53508
#	72663
#	89532
#	106799
#	124102
#	139460
#	157038
#
# Disc length: 2252 seconds
#
# Revision: 0
# Processed by: cddbd v1.5.2PL0 Copyright (c) Steve Scherf et al.
# Submitted via: EasyCDDAExtractor 9.1.0.1
#
DISCID=8908ca0a
DTITLE=Various Artist - HMG Christian Country
DYEAR=2006
DGENRE=Gospel
TTITLE0=Rich Mccready - Find That Feeling Again
TTITLE1=Miko Marks - The Lonely One
TTITLE2=The Hargroves - Peppermints And 16 Cents
TTITLE3=Tommy Brandk - I Believe In Angels
TTITLE4=Mike Rimmey - Joy Comes In The Morning
TTITLE5=Lance Christopher - Joy Unspeakable
TTITLE6=Leon Joplin - They'll Never Take Jesus
TTITLE7=Russ Murphy - Without Love
TTITLE8=Glorification Singers - Still Feeling Fine
TTITLE9=Steven Scott - Bible Toting Scripture Quoting Preacher Man
EXTD=
EXTT0=
EXTT1=
EXTT2=
EXTT3=
EXTT4=
EXTT5=
EXTT6=
EXTT7=
EXTT8=
EXTT9=
PLAYORDER=
